<?xml version="1.0" standalone="no"?>
<!DOCTYPE svg PUBLIC "-//W3C//DTD SVG 20010904//EN"
 "http://www.w3.org/TR/2001/REC-SVG-20010904/DTD/svg10.dtd">
<svg version="1.0" xmlns="http://www.w3.org/2000/svg"
 width="16.000000pt" height="16.000000pt" viewBox="0 0 16.000000 16.000000"
 preserveAspectRatio="xMidYMid meet">
<metadata>
Created by potrace 1.11, written by Peter Selinger 2001-2013
</metadata>
<g transform="translate(0.000000,16.000000) scale(0.002286,-0.002286)"
fill="#000000" stroke="none">
<path d="M6078 5564 c-5 -5 -30 -6 -293 -19 -165 -9 -199 -11 -260 -19 -44 -5
-108 -12 -185 -21 -14 -1 -50 -5 -80 -9 -30 -3 -82 -9 -115 -12 -83 -8 -115
-12 -240 -29 -16 -2 -52 -7 -80 -11 -27 -3 -59 -8 -70 -10 -11 -2 -48 -7 -81
-9 -34 -3 -72 -8 -85 -10 -13 -3 -44 -7 -69 -10 -25 -3 -56 -8 -70 -11 -14 -3
-41 -8 -60 -10 -19 -3 -62 -9 -95 -14 -33 -5 -77 -12 -99 -16 -21 -3 -48 -8
-60 -11 -11 -2 -28 -5 -36 -5 -8 0 -34 -4 -58 -9 -23 -5 -59 -12 -80 -15 -20
-2 -73 -11 -117 -19 -44 -8 -98 -16 -120 -20 -22 -3 -53 -7 -70 -10 -16 -3
-46 -7 -65 -9 -19 -3 -52 -8 -72 -11 -21 -3 -55 -7 -75 -10 -21 -3 -56 -11
-78 -17 -43 -12 -51 -13 -135 -24 -84 -11 -95 -12 -97 -14 -3 -3 -5 -3 -48
-15 -16 -4 -41 -15 -55 -23 -14 -9 -38 -17 -55 -18 -77 -3 -272 -22 -295 -29
-8 -2 -35 -7 -60 -9 -96 -12 -120 -16 -235 -41 -11 -2 -54 -13 -95 -25 -41
-12 -82 -21 -90 -21 -8 -1 -40 -5 -70 -10 -30 -5 -73 -11 -95 -13 -22 -3 -49
-7 -60 -10 -42 -10 -211 -48 -235 -52 -14 -2 -36 -7 -50 -10 -14 -3 -36 -8
-50 -10 -14 -3 -54 -12 -89 -20 -75 -18 -97 -23 -131 -30 -14 -2 -56 -11 -95
-20 -38 -8 -92 -20 -120 -25 -78 -16 -85 -17 -185 -39 -52 -11 -111 -23 -130
-26 -19 -4 -60 -16 -90 -28 -30 -13 -89 -33 -130 -45 -41 -13 -88 -29 -105
-36 -16 -8 -65 -28 -108 -45 -83 -34 -159 -88 -201 -142 -51 -67 -103 -209
-97 -263 0 -5 2 -67 5 -137 l4 -127 63 -113 c139 -250 208 -338 341 -440 43
-32 83 -68 89 -79 6 -12 10 -51 9 -87 -3 -142 4 -162 76 -193 29 -13 44 -26
44 -38 0 -10 6 -24 14 -30 8 -7 18 -27 21 -44 14 -68 57 -265 70 -317 7 -30
15 -73 18 -96 2 -23 7 -45 10 -50 3 -6 7 -44 9 -86 2 -60 6 -74 17 -70 10 4
13 1 8 -12 -4 -11 -3 -15 4 -11 6 4 19 -1 30 -11 10 -9 19 -14 19 -9 0 4 6 2
14 -4 7 -6 32 -12 55 -14 22 -1 41 -6 41 -10 0 -5 5 -5 10 -2 6 4 18 1 27 -7
12 -9 15 -9 9 0 -5 8 0 12 14 12 13 0 19 -4 14 -12 -5 -7 -3 -8 6 -3 8 5 82 9
167 10 84 1 156 4 160 8 3 4 18 -3 32 -15 14 -13 20 -16 14 -8 -20 22 -16 25
42 26 30 0 55 -3 55 -8 0 -4 5 -8 11 -8 5 0 7 5 4 10 -4 6 13 10 42 11 58 1
131 7 157 13 11 3 27 0 35 -7 12 -9 13 -9 7 0 -5 9 0 13 13 13 12 0 21 -6 21
-12 0 -9 3 -10 8 -2 4 6 26 13 49 17 40 5 42 4 32 -14 -5 -10 -14 -19 -20 -19
-6 0 -7 5 -3 12 5 7 3 8 -5 3 -10 -5 -10 -10 -1 -19 9 -8 19 -3 40 22 17 21
30 29 35 23 3 -6 10 -9 15 -6 5 3 20 0 32 -6 20 -11 21 -10 11 2 -10 12 -8 15
8 15 11 0 18 -5 15 -13 -3 -6 4 -15 15 -18 24 -8 24 -22 -1 -37 -26 -16 -25
-25 2 -39 13 -6 20 -9 17 -5 -4 4 4 19 18 34 24 28 56 33 118 18 11 -2 22 -5
25 -5 3 -1 -2 -5 -9 -10 -8 -5 -22 -6 -30 -3 -9 4 -30 7 -48 7 -25 0 -37 -7
-55 -34 -26 -39 -52 -53 -42 -24 5 15 4 15 -5 3 -8 -11 -7 -18 4 -26 8 -6 12
-14 8 -18 -4 -4 1 -4 12 0 12 5 14 9 6 12 -9 3 -8 9 5 23 9 10 21 16 25 13 5
-3 6 3 2 13 -6 16 -5 16 10 4 10 -7 17 -9 17 -3 0 6 -6 12 -12 15 -7 2 -10 8
-5 12 4 5 12 4 18 -2 6 -6 19 -9 28 -6 9 2 3 -7 -12 -21 -15 -14 -24 -26 -18
-26 5 0 12 4 15 9 3 5 17 9 31 9 13 0 22 -4 19 -9 -3 -5 2 -12 10 -15 9 -3 16
-10 16 -16 0 -5 -5 -6 -12 -2 -7 4 -8 3 -4 -4 4 -7 2 -12 -3 -12 -6 0 -11 -5
-11 -11 0 -8 5 -8 15 1 8 7 15 9 15 4 -1 -13 -23 -41 -33 -42 -5 0 -11 -3 -14
-5 -3 -3 2 -4 11 -3 9 1 22 10 29 21 13 17 14 17 20 -5 6 -23 7 -23 25 -7 22
20 37 23 26 5 -11 -17 -11 -58 -1 -51 4 2 7 14 5 25 -2 14 3 22 15 24 23 3 33
12 23 21 -4 4 -11 1 -15 -6 -5 -8 -11 -9 -15 -3 -3 5 1 15 9 22 12 10 18 10
31 -1 14 -11 19 -10 34 9 10 12 21 18 24 13 3 -5 -1 -14 -9 -21 -17 -14 -20
-30 -4 -30 5 0 7 5 3 12 -5 7 -2 9 9 5 12 -4 15 -1 11 11 -5 14 -3 14 10 -2
14 -18 15 -18 13 2 0 11 -4 19 -8 16 -4 -2 -12 3 -19 11 -13 16 -6 18 24 6 27
-10 27 -47 0 -76 -13 -14 -19 -25 -14 -25 5 0 17 11 28 25 l20 25 31 -35 c29
-34 57 -51 31 -20 -11 13 -9 20 10 40 28 29 42 24 15 -5 -15 -16 -16 -23 -6
-33 10 -9 11 -8 5 8 -6 17 -4 16 18 -5 14 -14 21 -29 16 -34 -4 -6 -8 -15 -8
-20 0 -6 5 -3 11 6 6 11 16 15 26 11 13 -5 13 -3 -3 14 -10 11 -21 19 -24 17
-4 -1 -11 6 -18 17 -15 24 -5 24 31 1 15 -10 24 -23 20 -27 -5 -5 -1 -4 8 3 9
7 23 10 32 6 12 -4 15 1 14 27 -1 18 3 34 10 36 7 3 10 -5 9 -22 -3 -22 -1
-23 12 -13 13 11 15 10 9 -4 -3 -9 1 -22 9 -29 8 -6 12 -14 9 -17 -3 -3 -13 2
-23 11 -16 15 -19 15 -31 -6 -13 -20 -13 -21 2 -9 10 8 21 10 29 5 17 -10 58
-11 58 -1 0 4 -7 8 -15 8 -20 0 -19 14 2 31 15 12 16 12 10 -3 -6 -16 2 -22
25 -20 14 2 16 -28 3 -42 -19 -18 -19 -23 0 -23 8 0 12 4 9 8 -2 4 1 11 7 14
5 4 8 13 5 20 -2 7 6 22 19 33 20 17 24 18 29 5 8 -21 8 -21 -10 -19 -9 0 -18
-5 -20 -12 -1 -7 0 -8 3 -2 2 5 9 10 14 10 6 0 7 -4 4 -10 -3 -5 -1 -10 4 -10
6 0 11 6 11 13 0 8 4 7 11 -3 8 -11 9 -9 3 10 -6 22 -5 23 9 12 9 -8 14 -19
11 -26 -9 -23 22 -25 35 -3 11 18 11 20 0 10 -19 -19 -31 -16 -18 5 15 23 48
23 46 0 -1 -10 -7 -20 -14 -22 -7 -3 -13 -10 -13 -16 0 -6 10 -2 22 10 12 11
24 17 27 14 3 -2 -8 -16 -24 -29 -15 -14 -25 -28 -22 -31 4 -4 16 4 28 17 15
18 19 20 15 6 -3 -11 -2 -16 4 -12 6 3 10 1 10 -4 0 -6 5 -11 11 -11 6 0 4 9
-5 21 -8 12 -12 27 -10 34 3 7 1 16 -5 20 -6 3 -11 11 -11 17 0 7 5 7 14 -1 7
-6 22 -8 32 -4 18 6 18 6 1 -14 -20 -23 -13 -55 10 -46 12 5 13 2 5 -14 -7
-13 -7 -24 0 -34 8 -12 9 -12 5 1 -3 9 2 25 10 35 12 17 15 18 23 5 7 -10 10
-11 10 -2 0 6 5 12 11 12 5 0 7 -5 3 -12 -4 -7 -3 -8 4 -4 7 4 12 2 12 -3 0
-6 5 -11 12 -11 6 0 3 9 -7 20 -10 11 -13 20 -7 20 7 0 12 5 12 11 0 6 -8 4
-20 -4 -19 -13 -76 -14 -88 -2 -7 6 18 35 30 35 6 0 5 -7 -2 -15 -9 -10 -9
-15 -1 -15 6 0 11 5 11 11 0 8 5 7 15 -1 13 -10 19 -10 35 5 18 16 20 16 26 1
3 -9 10 -13 15 -10 5 3 9 0 9 -5 0 -6 -4 -11 -10 -11 -5 0 -10 -5 -10 -12 0
-8 6 -7 16 4 13 12 14 20 5 36 -7 13 -7 23 -2 27 11 6 26 -32 22 -54 -1 -7
-11 -22 -21 -33 -16 -17 -18 -48 -3 -48 3 0 3 6 0 14 -3 8 3 22 13 31 19 17
20 17 29 -6 10 -27 7 -34 -8 -24 -6 3 -8 11 -5 17 4 7 2 8 -5 4 -9 -6 -9 -11
-1 -21 8 -10 8 -14 -2 -17 -7 -3 -5 -7 7 -12 11 -4 16 -4 12 0 -4 4 0 12 8 18
13 10 13 14 0 40 -19 37 -12 60 15 51 18 -6 25 2 22 27 -1 3 5 9 14 12 8 3 13
2 10 -3 -3 -5 6 -9 20 -9 14 0 31 -5 37 -12 9 -10 9 -11 -2 -5 -9 5 -12 4 -8
-3 4 -5 16 -8 27 -5 11 3 20 1 20 -5 0 -24 -40 -19 -60 6 -11 15 -19 20 -18
12 2 -8 12 -23 23 -33 12 -11 14 -16 5 -13 -8 3 -23 9 -33 12 -10 4 -16 13
-13 21 4 8 1 11 -5 8 -6 -4 -8 -13 -5 -21 4 -11 -2 -13 -25 -9 -21 4 -28 2
-24 -5 4 -6 13 -9 21 -6 7 3 27 -6 43 -19 38 -33 50 -32 15 0 -20 18 -23 25
-11 25 9 0 21 -8 27 -17 10 -17 10 -17 20 -1 6 10 18 18 26 18 11 0 10 -5 -5
-22 -11 -11 -18 -24 -16 -28 2 -4 -7 -12 -21 -19 -14 -6 -23 -15 -19 -20 3 -5
-3 -12 -12 -15 -15 -4 -15 -5 1 -3 11 1 19 7 18 12 0 6 9 15 21 22 12 6 22 16
22 22 0 6 14 24 32 40 25 22 33 25 37 14 3 -8 9 -12 14 -9 4 2 14 1 20 -3 10
-6 9 -11 -4 -22 -16 -12 -17 -12 -11 4 4 11 3 16 -3 12 -10 -6 -14 -35 -5 -35
3 0 17 7 30 16 19 12 28 14 38 5 8 -6 18 -7 22 -3 5 4 4 1 0 -7 -6 -11 -4 -13
8 -8 26 10 40 -25 21 -52 -9 -12 -20 -18 -26 -15 -6 4 -8 2 -4 -4 3 -5 0 -12
-6 -15 -7 -3 -3 -4 9 -4 12 1 20 4 17 8 -2 4 2 12 10 18 11 9 15 9 20 -1 3 -7
3 -2 0 11 -4 16 -3 21 5 16 7 -4 17 -2 24 3 16 14 29 13 47 -2 8 -8 23 -12 32
-11 10 2 20 -5 23 -16 4 -10 11 -19 16 -19 6 0 7 5 4 10 -3 6 -1 10 4 10 6 0
11 -5 11 -11 0 -5 5 -7 10 -4 6 3 10 2 10 -4 0 -6 7 -7 17 -4 9 4 14 2 10 -3
-3 -6 9 -10 29 -11 19 -1 40 -6 47 -11 7 -6 24 -12 37 -14 40 -6 70 -27 64
-43 -4 -8 -1 -15 4 -15 6 0 9 9 7 20 -2 11 0 20 6 20 5 0 9 -4 9 -9 0 -6 8
-10 18 -10 31 1 113 -26 105 -34 -4 -5 5 -6 20 -3 18 3 30 -1 37 -12 5 -10 10
-12 10 -4 0 6 5 12 11 12 5 0 8 -4 5 -9 -4 -5 4 -7 16 -3 12 3 19 1 15 -4 -3
-5 6 -9 20 -8 29 1 192 -37 212 -50 9 -6 12 -5 8 2 -5 6 0 8 13 5 11 -3 20 -9
20 -14 0 -5 7 -6 15 -3 8 3 38 1 67 -6 29 -6 73 -14 98 -16 25 -3 59 -9 75
-13 17 -4 38 -7 48 -5 9 1 17 -2 17 -6 0 -5 12 -8 28 -7 19 1 26 -2 24 -13 -3
-11 2 -10 17 4 12 11 21 15 21 10 0 -5 15 -10 33 -11 17 -1 57 -4 87 -7 30 -2
68 -5 83 -5 18 -1 26 -5 21 -12 -4 -8 -1 -8 12 -1 11 5 28 7 39 5 11 -2 40 -5
65 -6 37 -2 47 -6 57 -27 l12 -25 -5 26 c-5 25 -5 25 53 21 32 -2 61 -9 65
-15 5 -8 8 -7 8 3 0 13 1 13 10 0 8 -12 10 -12 10 -1 0 9 4 10 13 3 13 -10 46
-10 64 1 6 4 14 3 17 -1 6 -10 36 -9 54 2 6 4 12 3 12 -3 0 -6 11 -7 28 -3 36
10 94 8 111 -3 9 -5 12 -4 8 2 -3 5 15 10 44 10 27 1 58 5 70 8 15 5 19 4 14
-5 -5 -8 -2 -9 11 -1 17 8 52 16 164 37 14 2 39 6 55 7 17 2 40 8 51 15 12 6
24 9 27 6 3 -3 12 -2 19 2 17 11 37 16 70 18 14 0 24 4 22 7 -2 3 16 12 39 20
84 26 234 120 305 191 70 68 133 170 148 241 3 12 8 33 11 47 3 14 6 34 7 45
1 11 5 25 9 31 3 6 4 14 1 17 -3 3 -7 36 -9 74 -5 89 -26 164 -82 298 -51 121
-77 172 -131 255 -42 65 -146 201 -191 249 -35 38 -37 47 -16 87 21 40 19 90
-6 160 -11 32 -22 68 -24 79 -2 11 -13 76 -24 145 -12 69 -23 136 -26 149 -9
44 -19 136 -18 164 0 33 17 68 54 117 38 51 56 89 64 140 4 25 9 54 11 65 2
10 6 36 9 57 9 58 29 110 84 211 42 80 68 153 86 246 7 38 26 92 50 146 30 67
39 123 37 228 -3 94 -16 139 -57 193 -14 18 -25 39 -25 47 0 8 -9 22 -21 33
-12 10 -32 40 -45 66 -39 77 -136 141 -234 153 -84 10 -171 17 -246 19 -44 2
-85 6 -91 9 -6 4 -12 4 -15 1z m-3268 -3284 c9 -13 10 -13 10 0 1 12 3 11 11
-3 6 -9 14 -15 19 -12 6 3 19 -3 31 -14 12 -11 25 -18 29 -16 4 2 18 -6 31
-18 13 -12 26 -22 29 -22 3 0 4 -3 3 -7 -1 -3 4 -12 13 -18 12 -11 13 -10 8 5
-5 13 -3 16 7 13 8 -3 12 -13 11 -23 -3 -16 -1 -17 11 -7 11 10 17 9 26 -2 7
-8 18 -13 26 -10 7 3 15 1 18 -3 8 -12 -10 -39 -20 -30 -4 5 -1 12 7 17 9 6
10 10 3 10 -7 0 -17 -8 -22 -17 -6 -11 -11 -13 -11 -5 0 7 -5 10 -11 7 -6 -5
-3 -13 10 -22 12 -8 21 -19 21 -25 0 -7 -7 -3 -16 8 -8 10 -13 12 -9 4 4 -10
2 -9 -8 2 -8 10 -16 15 -19 12 -4 -3 -9 0 -14 7 -5 8 -3 10 7 4 11 -7 11 -5
-1 10 -13 17 -13 18 0 10 11 -6 12 -5 4 4 -22 24 -53 21 -69 -7 -16 -27 -16
-27 -10 -2 4 17 3 21 -3 11 -7 -9 -12 -10 -16 -2 -4 6 -2 11 4 11 6 0 8 5 4
11 -5 8 -9 8 -14 -1 -5 -8 -9 -7 -14 5 -4 11 -12 15 -24 11 -14 -5 -14 -3 2 9
11 8 15 15 10 15 -6 0 -16 -6 -23 -12 -11 -11 -12 -10 -6 2 8 13 7 13 -8 1 -9
-7 -17 -10 -17 -6 0 4 -8 1 -17 -6 -14 -12 -16 -12 -8 0 6 10 4 12 -5 6 -9 -6
-11 -4 -5 6 5 8 -2 5 -16 -6 -22 -19 -23 -19 -9 -1 13 18 13 19 0 11 -13 -8
-13 -7 0 10 12 15 12 17 1 10 -9 -5 -12 -4 -8 2 3 5 0 10 -8 10 -8 0 -11 -5
-8 -11 4 -6 0 -5 -8 1 -9 7 -25 11 -37 8 -12 -2 -24 1 -27 6 -4 5 -12 6 -18 2
-7 -4 -5 2 3 12 15 18 14 18 -11 1 -23 -15 -27 -15 -32 -2 -4 9 -2 18 3 21 4
3 10 -1 13 -7 4 -10 7 -10 18 0 12 11 12 13 0 10 -7 -2 -16 3 -19 11 -3 10 0
12 11 8 9 -3 18 -3 21 1 2 4 34 7 71 7 47 0 68 -4 75 -15z m-260 -2 c0 7 16
11 35 10 34 -1 45 -11 25 -23 -19 -12 8 -43 35 -40 14 2 27 -1 30 -5 3 -5 16
-7 30 -4 13 2 27 0 30 -6 4 -6 10 -8 15 -5 4 3 7 -3 5 -12 -4 -26 5 -36 20
-23 9 8 15 8 20 0 3 -6 12 -7 18 -3 18 11 36 12 42 3 3 -5 11 -7 18 -5 7 3 23
-10 35 -29 15 -21 29 -33 38 -29 8 3 11 9 8 14 -3 5 -1 9 5 9 5 0 9 -9 8 -20
-1 -13 -7 -18 -22 -16 -11 2 -25 -1 -32 -6 -9 -7 -11 -2 -7 19 3 23 2 25 -7
10 -5 -9 -15 -15 -20 -11 -6 3 -3 12 8 21 16 13 16 13 -5 3 -22 -11 -23 -10
-11 12 11 21 11 22 -4 9 -15 -12 -21 -9 -19 10 1 3 -6 6 -14 6 -12 0 -12 -3 1
-17 8 -9 15 -23 15 -31 -1 -10 -4 -9 -11 4 -6 9 -15 14 -21 11 -8 -5 -9 -1 -5
12 7 18 7 18 -8 0 -8 -11 -15 -25 -15 -30 0 -6 -5 -4 -10 4 -6 10 -10 11 -10
3 0 -7 -5 -13 -11 -13 -8 0 -7 6 2 17 12 14 12 16 0 8 -10 -6 -12 -4 -6 5 5 8
4 11 -3 6 -6 -3 -14 -1 -18 5 -4 8 -3 9 4 5 7 -4 12 -3 12 2 0 5 -11 14 -25
20 -14 6 -25 17 -25 24 0 9 -3 9 -10 -2 -7 -12 -12 -11 -30 5 -21 19 -22 19
-40 -5 -10 -14 -22 -21 -26 -17 -4 4 -2 7 4 7 7 0 12 5 12 11 0 8 -5 8 -15 -1
-12 -10 -15 -10 -15 1 0 12 -2 12 -9 0 -6 -9 -11 -10 -15 -2 -7 11 6 15 33 12
7 -2 10 3 6 9 -4 6 -13 9 -19 7 -7 -3 -13 1 -13 9 0 7 5 10 10 7 6 -4 7 0 3 8
-4 8 0 5 9 -6 15 -19 15 -19 12 5 -2 14 -10 25 -18 26 -19 0 -40 -16 -34 -26
3 -5 1 -11 -5 -15 -5 -3 -10 1 -10 9 0 9 -5 16 -11 16 -5 0 -8 -4 -4 -9 3 -6
-6 -8 -20 -5 -14 2 -25 0 -25 -6 0 -6 -5 -8 -10 -5 -6 4 -8 10 -5 14 2 5 -7 7
-20 5 -14 -1 -25 2 -25 8 0 5 9 6 21 3 15 -5 19 -4 14 5 -6 9 -3 9 13 1 25
-13 35 -14 27 -2 -3 6 6 8 21 5 19 -3 24 -1 18 8 -6 10 -3 9 9 -1 11 -8 17 -9
17 -3z m-156 -20 c-3 -4 -10 -6 -15 -3 -5 3 -6 0 -4 -7 4 -9 -2 -14 -16 -15
-16 -2 -18 1 -9 12 9 10 7 13 -7 10 -10 -1 -17 -8 -15 -14 1 -6 -3 -11 -9 -11
-6 0 -8 7 -4 18 5 13 3 14 -6 5 -14 -14 -2 -36 16 -29 13 5 30 -22 20 -32 -3
-3 -5 -1 -5 5 0 5 -20 9 -45 9 -35 -1 -50 -7 -70 -28 -14 -16 -31 -28 -38 -28
-7 0 -4 7 7 15 11 8 20 29 22 50 2 33 1 35 -11 18 -13 -16 -14 -16 -15 -2 0 9
6 19 14 22 18 7 36 -11 29 -29 -6 -17 -1 -17 32 -2 28 12 33 25 10 25 -8 0
-11 -5 -8 -10 3 -5 0 -8 -7 -5 -21 7 -23 27 -3 24 10 -2 26 0 36 3 27 10 107
9 101 -1z m16 -14 c0 -3 -7 -12 -15 -20 -16 -17 -18 -14 -9 10 6 15 24 23 24
10z m65 -15 c5 10 43 7 53 -4 3 -2 12 1 20 8 13 10 14 9 4 -9 -9 -17 -9 -24 3
-34 8 -7 15 -9 15 -5 0 4 7 1 16 -6 14 -11 19 -10 35 10 19 23 20 23 39 6 10
-9 22 -15 27 -12 5 3 16 -1 26 -8 16 -11 16 -13 2 -19 -11 -4 -14 -2 -9 6 4 7
3 8 -4 4 -6 -4 -9 -14 -6 -24 3 -9 -2 -6 -10 8 -10 16 -15 19 -16 10 0 -13 -2
-13 -9 -1 -5 8 -17 16 -25 17 -9 1 -14 -2 -10 -7 3 -5 10 -7 15 -4 13 9 10 -7
-7 -35 -8 -14 -13 -17 -10 -7 3 9 3 24 -1 33 -5 13 -7 13 -14 2 -7 -11 -11
-10 -18 1 -8 12 -12 12 -24 2 -10 -8 -17 -9 -22 -1 -3 5 0 10 7 10 7 0 0 11
-16 25 -16 13 -33 22 -37 19 -5 -3 -9 0 -9 6 0 6 -5 8 -12 4 -9 -6 -9 -9 0
-12 7 -2 12 -8 12 -14 0 -5 -13 0 -28 10 -20 15 -32 18 -45 11 -10 -6 -15 -14
-12 -20 4 -5 1 -9 -4 -9 -15 0 -14 8 7 35 15 21 19 22 39 9 13 -8 24 -10 28
-5z m-74 -47 c6 2 10 7 9 12 -4 19 25 25 38 9 6 -9 12 -13 12 -9 0 5 7 3 15
-4 12 -10 16 -9 21 4 6 16 8 16 25 0 10 -9 16 -21 12 -26 -9 -15 19 -28 34
-16 9 7 14 6 19 -6 5 -14 9 -14 22 -4 14 12 14 10 2 -11 l-12 -24 -15 24 c-12
22 -13 22 -8 2 7 -25 -10 -39 -29 -23 -11 8 -15 8 -18 -1 -4 -11 -48 -22 -48
-12 0 10 29 32 33 25 2 -4 2 -1 1 6 -4 16 6 15 36 -4 l25 -16 -24 21 c-14 13
-31 19 -42 16 -14 -5 -17 -2 -13 9 3 9 10 14 14 11 5 -3 12 0 16 6 4 7 3 9 -4
5 -5 -3 -12 0 -15 6 -3 9 -8 6 -13 -7 -8 -21 -23 -35 -37 -35 -5 0 -5 4 -2 10
3 5 -1 22 -9 37 -11 20 -15 23 -16 11 0 -28 1 -33 11 -30 5 1 9 -2 9 -8 0 -15
-15 -12 -54 10 -34 21 -50 43 -38 54 3 4 12 -5 20 -19 7 -15 18 -25 23 -23z
m-42 -22 c23 12 61 -2 61 -22 0 -6 -9 -4 -23 5 -17 11 -28 12 -38 5 -11 -8
-10 -9 4 -4 15 5 17 2 12 -13 -4 -14 0 -23 13 -30 16 -8 21 -6 30 13 7 16 18
23 41 23 33 0 38 -6 20 -24 -15 -15 -3 -34 16 -26 8 3 15 1 15 -5 0 -5 -6 -12
-14 -15 -17 -7 -51 27 -42 42 4 5 1 13 -5 17 -7 4 -9 3 -6 -3 4 -6 0 -13 -8
-17 -8 -3 -15 -13 -14 -23 0 -16 1 -16 8 1 6 15 9 17 16 6 5 -9 -3 -22 -26
-41 l-34 -27 -11 26 c-6 15 -9 31 -6 36 3 5 -2 14 -10 20 -8 6 -17 16 -19 21
-2 6 -9 9 -16 9 -6 -1 -11 7 -10 17 1 13 5 15 13 8 9 -7 19 -7 33 1z m310 -26
c-6 -7 -8 -18 -4 -24 4 -7 0 -10 -11 -8 -19 3 -26 -18 -14 -37 7 -12 11 -55 4
-55 -13 0 -54 46 -50 57 3 7 1 15 -4 18 -19 12 -10 23 16 20 18 -2 28 4 36 20
5 12 16 22 24 22 10 0 11 -4 3 -13z m69 0 c15 -15 14 -16 -8 -10 -16 5 -20 4
-12 -2 10 -7 9 -12 -4 -23 -16 -12 -17 -12 -12 2 4 9 1 16 -7 16 -7 0 -11 -6
-8 -14 3 -7 0 -13 -6 -13 -6 0 -10 -6 -8 -12 1 -7 -4 -13 -12 -13 -8 0 -15 7
-16 16 -2 10 4 16 14 15 10 -1 15 5 13 18 -3 14 1 17 13 13 9 -4 18 -1 21 8 8
19 12 19 32 -1z m253 2 c1 -6 1 -14 0 -18 0 -4 16 -19 36 -33 40 -27 67 -20
42 11 -10 13 -11 16 -1 10 8 -5 20 -1 31 8 16 15 19 14 39 -4 12 -12 22 -18
22 -14 0 3 7 1 15 -6 8 -7 15 -9 15 -4 0 5 5 1 11 -9 6 -9 14 -15 20 -12 5 4
9 1 9 -5 0 -6 4 -9 9 -5 5 3 15 0 23 -7 7 -7 22 -15 33 -16 11 -2 23 -8 26
-14 3 -5 10 -9 15 -9 5 0 17 -2 28 -5 14 -5 15 -9 6 -17 -8 -9 -15 -7 -27 8
-13 16 -15 17 -10 3 4 -10 4 -25 0 -34 -5 -14 -8 -12 -19 7 -16 29 -18 50 -3
29 9 -13 10 -13 6 0 -2 8 -10 14 -16 13 -6 -2 -11 2 -11 8 0 5 -5 7 -11 3 -8
-4 -7 -9 2 -14 10 -7 10 -12 1 -23 -7 -7 -8 -18 -4 -22 4 -5 1 -5 -6 -1 -7 4
-10 16 -7 27 4 12 2 19 -7 19 -9 0 -10 2 -2 8 8 5 7 11 -4 22 -14 13 -15 12
-9 -3 3 -9 2 -19 -3 -22 -9 -6 -15 9 -11 29 1 5 -6 3 -15 -5 -16 -12 -17 -12
-12 3 9 21 -2 31 -19 17 -10 -9 -13 -8 -13 0 0 7 -5 9 -12 5 -7 -5 -8 -3 -3 6
6 9 4 11 -5 5 -9 -6 -11 -4 -5 5 6 9 4 11 -5 5 -9 -6 -11 -4 -5 6 6 11 5 11
-5 2 -7 -6 -19 -9 -27 -6 -12 5 -14 1 -8 -18 4 -16 3 -20 -3 -10 -8 10 -13 8
-26 -10 -9 -13 -17 -20 -17 -16 -1 4 -3 12 -4 17 -1 6 -3 13 -4 16 0 3 -6 2
-11 -1 -8 -5 -7 -11 1 -21 7 -8 7 -14 1 -14 -5 0 -15 6 -21 14 -10 11 -8 17 6
25 15 10 14 11 -9 7 -14 -2 -36 -10 -49 -16 -18 -10 -21 -10 -16 2 3 8 0 15
-7 15 -8 0 -12 -12 -11 -29 1 -15 -2 -28 -7 -28 -5 0 -6 -5 -2 -11 10 -16 24
10 16 30 -5 14 -4 14 12 2 12 -10 14 -17 6 -25 -5 -5 -10 -14 -10 -19 0 -5 9
1 20 14 10 13 19 19 20 13 1 -32 -69 -56 -71 -25 -1 9 -2 23 -3 31 -2 26 -28
64 -35 51 -5 -7 -14 -5 -29 9 -14 13 -22 16 -22 8 0 -10 -2 -10 -9 1 -6 9 -11
10 -15 2 -4 -6 -2 -11 3 -11 20 0 11 -16 -9 -17 -13 -1 -18 2 -14 10 4 7 4 9
-1 5 -4 -4 -14 -3 -20 2 -9 8 -11 3 -8 -17 2 -16 4 -36 4 -45 0 -22 15 -32 17
-13 1 8 3 22 4 30 1 9 7 14 15 11 9 -4 11 -1 7 6 -4 6 -3 8 4 4 6 -3 14 0 19
8 6 11 13 12 23 6 13 -9 13 -10 0 -10 -8 -1 -2 -8 14 -16 18 -10 25 -19 19
-25 -11 -11 -45 -1 -38 11 3 5 1 12 -5 15 -17 10 -37 -13 -35 -39 2 -19 -1
-23 -22 -20 -31 3 -38 10 -38 37 0 11 -7 22 -15 24 -13 4 -13 3 0 -6 11 -7 12
-13 4 -21 -9 -9 -13 -4 -18 16 l-7 27 -15 -22 c-8 -11 -20 -21 -25 -21 -6 0 0
13 13 29 13 15 25 27 27 25 2 -2 13 3 23 12 14 14 20 14 33 4 11 -9 15 -9 15
-1 0 7 5 9 10 6 6 -3 13 1 16 10 6 13 8 14 15 3 7 -10 9 -10 9 2 1 12 3 12 11
-2 5 -9 16 -15 23 -12 8 3 17 0 21 -5 3 -6 11 -8 17 -5 6 4 8 2 5 -3 -4 -6 0
-17 9 -24 12 -10 15 -10 12 2 -2 9 7 13 26 14 31 0 44 28 26 50 -7 8 -5 12 5
12 8 0 16 -5 16 -11z m-581 -16 c0 -5 -7 -10 -15 -10 -8 0 -15 5 -15 10 0 6 7
10 15 10 8 0 15 -4 15 -10z m738 -60 c25 -17 28 -27 7 -27 -8 0 -12 4 -9 9 3
4 1 8 -4 8 -5 0 -9 -13 -9 -30 0 -16 4 -30 9 -30 5 0 6 5 2 11 -4 8 0 8 15 0
15 -8 21 -9 21 -1 0 6 5 8 12 4 6 -4 8 -3 5 4 -4 5 -16 8 -27 5 -11 -3 -20 0
-20 6 0 6 4 10 9 9 5 -2 16 6 25 17 l15 20 -2 -20 c-1 -11 3 -19 9 -18 7 1 10
-6 7 -17 -3 -11 -10 -20 -15 -20 -5 0 -6 -5 -2 -11 5 -8 11 -5 18 7 11 20 29
25 42 12 4 -5 0 -8 -8 -8 -9 0 -22 -8 -29 -17 -13 -16 -12 -17 4 -4 21 17 34
9 13 -9 -13 -10 -20 -8 -42 9 -15 12 -35 19 -45 16 -9 -3 -20 -1 -24 5 -3 6
-10 8 -15 5 -4 -3 -11 2 -14 11 -4 12 -2 15 9 11 19 -8 26 5 14 23 -7 12 -9
12 -9 1 0 -8 -6 -11 -16 -7 -8 3 -13 2 -10 -3 3 -5 0 -11 -8 -14 -10 -4 -12 0
-9 14 3 11 13 18 22 17 10 -2 16 3 15 13 -2 19 12 19 44 -1z m-262 -44 c-9
-14 -22 -26 -28 -26 -6 0 -1 12 13 26 16 18 20 28 12 31 -7 3 -13 10 -13 16 0
6 7 4 17 -5 15 -16 15 -19 -1 -42z m128 15 c4 -5 3 -17 -1 -26 -5 -14 -9 -11
-24 16 -10 19 -18 28 -19 21 0 -7 -5 -10 -11 -6 -8 4 -7 9 2 15 13 8 43 -3 53
-20z m38 -47 c-8 -14 -10 -14 -21 0 -11 13 -11 19 0 32 11 14 13 14 21 0 5 -9
5 -23 0 -32z m38 16 c0 -5 -4 -10 -10 -10 -5 0 -10 5 -10 10 0 6 5 10 10 10 6
0 10 -4 10 -10z m280 -34 c0 -11 -19 -15 -25 -6 -3 5 1 10 9 10 9 0 16 -2 16
-4z m140 -36 c0 -5 -5 -10 -11 -10 -5 0 -7 5 -4 10 3 6 8 10 11 10 2 0 4 -4 4
-10z m191 -74 c5 3 9 0 9 -6 0 -15 -23 -7 -26 8 -1 7 0 8 3 2 2 -5 9 -8 14 -4z"/>
<path d="M2665 2282 c-2 -3 -1 -10 3 -16 4 -6 7 -15 7 -21 0 -5 20 -10 45 -10
50 0 74 -11 64 -27 -4 -6 -2 -8 4 -4 6 3 13 2 16 -3 6 -9 23 -10 41 0 18 10
50 4 50 -8 0 -7 5 -13 10 -14 6 0 17 -7 27 -15 11 -11 18 -12 23 -4 3 5 12 7
18 3 8 -5 8 -2 0 9 -7 8 -11 18 -8 21 3 4 2 5 -2 2 -3 -3 -17 5 -30 17 -13 12
-23 18 -23 14 0 -4 -13 2 -30 14 -16 12 -30 18 -30 14 0 -3 -7 -1 -15 6 -8 7
-15 9 -15 4 0 -5 -7 0 -15 10 -11 14 -15 16 -15 5 0 -12 -2 -12 -10 1 -9 13
-10 13 -10 0 0 -13 -1 -13 -10 0 -7 11 -10 11 -10 2 0 -8 -5 -10 -12 -5 -14 9
-66 12 -73 5z m73 -12 c1 -1 16 -4 32 -5 17 -1 32 -4 35 -5 3 -1 10 -4 15 -5
6 -1 12 -3 15 -4 3 0 6 0 8 1 1 2 17 -7 35 -20 17 -13 32 -20 32 -16 0 4 11
-3 25 -16 27 -25 23 -51 -4 -26 -10 9 -21 13 -26 9 -4 -5 -5 -3 -2 3 12 22
-39 41 -60 24 -11 -9 -32 -3 -53 15 -18 16 -37 22 -67 21 -23 -1 -40 0 -38 3
3 2 1 9 -5 16 -7 8 -1 11 23 9 18 -1 33 -2 35 -4z"/>
<path d="M2696 2261 c8 -8 43 -8 38 0 -2 4 -13 7 -24 6 -10 -1 -17 -3 -14 -6z"/>
<path d="M2790 2235 c18 -20 36 -24 60 -15 3 1 10 1 15 0 6 -1 6 2 2 7 -5 4
-13 9 -18 9 -5 1 -11 3 -14 4 -3 1 -9 4 -15 5 -5 1 -11 3 -12 5 -2 1 -11 3
-22 5 -16 3 -16 1 4 -20z m32 0 c3 0 9 -3 13 -7 4 -3 0 -5 -9 -4 -9 1 -22 8
-29 16 -10 10 -9 11 3 4 8 -5 18 -9 22 -9z"/>
<path d="M2925 2190 c10 -11 20 -20 23 -20 3 0 -3 9 -13 20 -10 11 -20 20 -23
20 -3 0 3 -9 13 -20z"/>
<path d="M3029 2158 c-8 -27 -6 -38 5 -29 7 6 17 7 22 3 4 -4 2 1 -5 11 -12
16 -20 21 -22 15z"/>
<path d="M2710 2198 c0 -6 3 -8 7 -5 3 4 13 1 22 -6 14 -11 14 -10 2 6 -15 20
-31 22 -31 5z"/>
<path d="M2775 2159 c-4 -6 -3 -15 3 -21 6 -6 11 -4 15 6 7 18 -9 31 -18 15z"/>
<path d="M2634 2188 c-4 -7 -4 -10 1 -6 4 4 15 2 24 -5 14 -11 14 -10 2 6 -16
20 -18 21 -27 5z"/>
<path d="M2380 2080 c0 -6 5 -10 11 -10 5 0 7 -5 3 -12 -4 -7 -3 -8 4 -4 16
10 15 23 -3 30 -8 3 -15 1 -15 -4z"/>
<path d="M2605 2079 c2 -22 25 -51 25 -31 0 7 -4 12 -10 12 -5 0 -7 6 -4 14 3
8 1 16 -4 20 -5 3 -8 -4 -7 -15z"/>
<path d="M3106 2111 c-4 -5 -2 -12 3 -15 5 -4 12 -2 15 3 4 5 2 12 -3 15 -5 4
-12 2 -15 -3z"/>
<path d="M2983 2097 c0 -8 6 -14 14 -14 9 0 10 4 2 14 -6 7 -12 13 -14 13 -1
0 -2 -6 -2 -13z"/>
<path d="M2715 2080 c-3 -5 -1 -10 4 -10 6 0 11 5 11 10 0 6 -2 10 -4 10 -3 0
-8 -4 -11 -10z"/>
<path d="M2077 2215 c-4 -8 -2 -17 4 -21 6 -4 6 -11 -2 -20 -10 -12 -9 -17 1
-27 10 -10 12 -9 7 5 -3 10 -2 20 3 23 5 3 12 -4 15 -16 4 -11 9 -18 12 -15 3
3 -3 18 -13 33 -10 15 -17 34 -16 41 4 17 -5 15 -11 -3z"/>
<path d="M2107 2215 c-4 -8 -1 -17 6 -21 7 -4 9 -4 5 1 -4 4 -3 14 3 22 7 8 8
13 1 13 -5 0 -12 -7 -15 -15z"/>
<path d="M1939 2208 c-1 -7 -1 -16 0 -20 0 -5 -5 -8 -13 -8 -8 0 -17 -7 -20
-15 -5 -14 -4 -14 16 -1 19 14 36 56 23 56 -3 0 -6 -6 -6 -12z"/>
<path d="M1890 2200 c0 -5 5 -10 10 -10 6 0 10 5 10 10 0 6 -4 10 -10 10 -5 0
-10 -4 -10 -10z"/>
<path d="M1970 2200 c-8 -5 -10 -10 -5 -10 6 0 17 5 25 10 8 5 11 10 5 10 -5
0 -17 -5 -25 -10z"/>
<path d="M2127 2190 c-3 -11 -3 -20 -1 -20 2 0 8 9 14 20 6 11 7 20 2 20 -6 0
-12 -9 -15 -20z"/>
<path d="M2165 2200 c3 -5 1 -10 -6 -10 -7 0 -10 -2 -7 -5 8 -9 38 6 32 16 -3
5 -10 9 -15 9 -6 0 -7 -4 -4 -10z"/>
<path d="M1596 2178 c3 -5 10 -6 15 -3 13 9 11 12 -6 12 -8 0 -12 -4 -9 -9z"/>
<path d="M1635 2182 c3 -3 -1 -12 -7 -21 -8 -10 -4 -9 10 3 26 23 26 23 7 23
-8 0 -13 -3 -10 -5z"/>
<path d="M1758 2183 c7 -3 16 -2 19 1 4 3 -2 6 -13 5 -11 0 -14 -3 -6 -6z"/>
<path d="M1832 2176 c7 -8 15 -10 16 -5 2 5 9 6 15 2 7 -3 9 -2 4 2 -4 5 -17
10 -28 12 -16 2 -18 1 -7 -11z"/>
<path d="M1990 2180 c0 -5 5 -10 10 -10 6 0 10 5 10 10 0 6 -4 10 -10 10 -5 0
-10 -4 -10 -10z"/>
<path d="M2036 2175 c-11 -8 -15 -15 -10 -15 6 0 19 7 30 15 10 8 15 14 9 14
-5 0 -19 -6 -29 -14z"/>
<path d="M1879 2173 c0 -5 -2 -16 -4 -25 -2 -10 0 -18 5 -18 4 0 8 11 8 25 0
22 -7 36 -9 18z"/>
<path d="M1315 2160 c3 -5 8 -10 11 -10 2 0 4 5 4 10 0 6 -5 10 -11 10 -5 0
-7 -4 -4 -10z"/>
<path d="M1715 2160 c-3 -5 -1 -10 4 -10 6 0 11 5 11 10 0 6 -2 10 -4 10 -3 0
-8 -4 -11 -10z"/>
<path d="M1800 2155 c-19 -22 -8 -25 13 -3 9 10 13 18 8 18 -5 0 -14 -7 -21
-15z"/>
<path d="M1950 2160 c0 -5 7 -7 15 -4 8 4 15 8 15 10 0 2 -7 4 -15 4 -8 0 -15
-4 -15 -10z"/>
<path d="M1235 2139 c-3 -4 2 -6 10 -5 21 3 28 13 10 13 -9 0 -18 -4 -20 -8z"/>
<path d="M1516 2142 c-2 -4 -1 -14 4 -22 7 -11 9 -9 7 8 -1 24 -3 26 -11 14z"/>
<path d="M1664 2142 c4 -3 14 -7 22 -8 9 -1 13 0 10 4 -4 3 -14 7 -22 8 -9 1
-13 0 -10 -4z"/>
<path d="M1928 2143 c6 -2 9 -10 6 -15 -4 -7 -2 -8 5 -4 13 9 5 26 -12 25 -9
0 -8 -2 1 -6z"/>
<path d="M1964 2139 c-4 -7 -3 -9 4 -5 5 3 13 0 15 -6 4 -9 6 -10 6 -1 1 17
-16 25 -25 12z"/>
<path d="M2009 2127 c-9 -15 -8 -18 2 -12 9 6 11 3 6 -9 -4 -10 -3 -15 4 -11
5 4 7 14 4 24 -3 12 1 17 15 18 11 1 18 -2 15 -8 -10 -14 22 -22 42 -10 15 9
13 10 -10 5 -20 -5 -27 -3 -25 7 5 22 -41 19 -53 -4z"/>
<path d="M2144 2135 c11 -8 22 -12 25 -9 6 6 -19 24 -34 24 -5 -1 -1 -7 9 -15z"/>
<path d="M1816 2126 c5 -13 29 -16 36 -5 2 2 1 3 -1 2 -2 -1 -12 2 -22 8 -14
7 -17 6 -13 -5z"/>
<path d="M1387 2119 c7 -7 15 -10 18 -7 3 3 -2 9 -12 12 -14 6 -15 5 -6 -5z"/>
<path d="M1550 2120 c0 -5 5 -10 11 -10 5 0 7 5 4 10 -3 6 -8 10 -11 10 -2 0
-4 -4 -4 -10z"/>
<path d="M1634 2118 c-4 -7 -4 -10 1 -6 4 4 15 2 24 -5 14 -11 14 -10 2 6 -16
20 -18 21 -27 5z"/>
<path d="M1895 2119 c-6 -8 -4 -10 5 -4 10 6 12 4 6 -11 -6 -15 -5 -17 5 -6 9
9 10 15 2 23 -8 8 -13 7 -18 -2z"/>
<path d="M2105 2108 l-20 -21 23 12 c12 6 22 16 22 21 0 13 -2 12 -25 -12z"/>
<path d="M1450 2100 c0 -5 5 -10 11 -10 5 0 7 5 4 10 -3 6 -8 10 -11 10 -2 0
-4 -4 -4 -10z"/>
<path d="M1933 2103 c4 -6 2 -13 -5 -15 -8 -3 -6 -6 4 -10 17 -7 19 15 3 29
-4 4 -5 3 -2 -4z"/>
<path d="M1975 2101 c-6 -11 13 -26 22 -17 4 3 1 6 -6 6 -7 0 -9 5 -6 10 3 6
4 10 1 10 -3 0 -7 -4 -11 -9z"/>
<path d="M2036 2095 c-9 -26 -7 -32 5 -12 6 10 9 21 6 23 -2 3 -7 -2 -11 -11z"/>
<path d="M2137 2103 c-2 -5 -3 -17 -3 -28 1 -15 7 -19 26 -17 20 3 22 1 12
-10 -9 -12 -9 -15 2 -15 8 0 13 7 11 16 -1 9 -11 16 -24 15 -22 -1 -26 24 -6
38 6 5 6 8 -2 8 -6 0 -14 -3 -16 -7z"/>
<path d="M2230 2100 c0 -6 4 -9 9 -5 5 3 11 -5 13 -17 2 -13 8 -23 13 -22 6 1
15 -6 21 -14 12 -16 34 -9 34 11 0 7 -4 6 -10 -3 -8 -13 -11 -12 -24 5 -9 11
-16 16 -17 10 0 -5 -4 1 -8 14 -7 25 -31 42 -31 21z"/>
<path d="M2290 2099 c0 -5 -6 -7 -12 -3 -7 4 -6 -1 3 -10 16 -17 49 -13 49 7
0 7 -4 7 -12 -1 -17 -17 -33 -15 -18 3 9 10 9 15 1 15 -6 0 -11 -5 -11 -11z"/>
<path d="M1812 2091 c-11 -7 -11 -9 0 -14 9 -3 15 1 15 9 0 8 -1 14 -1 14 -1
0 -7 -4 -14 -9z"/>
<path d="M1854 2080 c0 -15 4 -16 18 -9 10 5 18 13 18 16 0 3 -3 3 -7 0 -3 -4
-11 -3 -17 3 -8 6 -12 3 -12 -10z"/>
<path d="M1351 2073 c7 -12 15 -20 18 -17 3 2 -3 12 -13 22 -17 16 -18 16 -5
-5z"/>
<path d="M1555 2080 c3 -5 8 -10 11 -10 2 0 4 5 4 10 0 6 -5 10 -11 10 -5 0
-7 -4 -4 -10z"/>
<path d="M1633 2073 c0 -9 4 -10 14 -2 7 6 13 12 13 14 0 1 -6 2 -13 2 -8 0
-14 -6 -14 -14z"/>
<path d="M1724 2078 c-3 -4 5 -5 17 -3 30 6 36 14 9 12 -12 -1 -24 -5 -26 -9z"/>
<path d="M2070 2070 c0 -5 7 -7 15 -4 8 4 15 8 15 10 0 2 -7 4 -15 4 -8 0 -15
-4 -15 -10z"/>
<path d="M1880 2055 c-7 -8 -16 -13 -20 -10 -4 3 -14 -3 -21 -13 -12 -15 -12
-16 2 -5 9 7 18 11 21 8 3 -3 13 4 23 15 10 11 16 20 13 20 -3 0 -11 -7 -18
-15z"/>
<path d="M1910 2066 c0 -2 7 -7 16 -10 8 -3 12 -2 9 4 -6 10 -25 14 -25 6z"/>
<path d="M2205 2060 c-5 -8 -4 -11 2 -7 6 4 14 0 17 -9 3 -8 10 -13 15 -10 5
4 12 1 14 -4 4 -7 5 -6 4 1 -2 6 -6 9 -9 7 -4 -2 -13 6 -21 16 -11 15 -16 16
-22 6z"/>
<path d="M1510 2056 c0 -2 8 -10 18 -17 15 -13 16 -12 3 4 -13 16 -21 21 -21
13z"/>
<path d="M2030 2053 c5 -2 8 -9 4 -14 -3 -5 0 -9 6 -9 15 0 7 23 -8 26 -7 1
-8 0 -2 -3z"/>
<path d="M1731 2047 c2 -1 13 -9 24 -17 19 -14 19 -14 6 3 -7 9 -18 17 -24 17
-6 0 -8 -1 -6 -3z"/>
<path d="M1899 2033 c-13 -16 -12 -17 4 -4 9 7 17 15 17 17 0 8 -8 3 -21 -13z"/>
<path d="M2106 2042 c-3 -5 1 -9 9 -9 8 0 15 4 15 9 0 4 -4 8 -9 8 -6 0 -12
-4 -15 -8z"/>
<path d="M1948 2023 c7 -3 16 -2 19 1 4 3 -2 6 -13 5 -11 0 -14 -3 -6 -6z"/>
<path d="M2199 2028 c-7 -25 -5 -36 9 -34 9 2 18 9 20 17 3 11 1 11 -7 -1 -10
-13 -15 -8 -12 13 1 6 -8 11 -10 5z"/>
<path d="M2270 2020 c0 -6 7 -10 15 -10 8 0 15 2 15 4 0 2 -7 6 -15 10 -8 3
-15 1 -15 -4z"/>
<path d="M2475 2019 c-4 -6 -4 -13 -1 -16 3 -4 6 -1 6 5 0 21 16 13 17 -8 1
-13 -2 -18 -9 -14 -7 5 -8 2 -3 -6 6 -10 11 -9 21 5 10 14 11 22 3 32 -14 16
-26 17 -34 2z"/>
<path d="M2535 2020 c-3 -5 -2 -10 4 -10 5 0 13 5 16 10 3 6 2 10 -4 10 -5 0
-13 -4 -16 -10z"/>
<path d="M1629 2003 c-13 -16 -12 -17 4 -4 9 7 17 15 17 17 0 8 -8 3 -21 -13z"/>
<path d="M1915 2011 c-3 -5 -2 -12 3 -15 5 -3 9 1 9 9 0 17 -3 19 -12 6z"/>
<path d="M2010 2016 c0 -2 8 -10 18 -17 15 -13 16 -12 3 4 -13 16 -21 21 -21
13z"/>
<path d="M2055 2009 c-4 -6 -5 -12 -2 -15 2 -3 7 2 10 11 7 17 1 20 -8 4z"/>
<path d="M2100 2012 c0 -6 5 -14 10 -17 6 -4 8 -10 6 -14 -3 -4 1 -8 9 -8 12
0 12 4 -2 21 -10 12 -19 23 -20 25 -2 2 -3 -1 -3 -7z"/>
<path d="M1759 1993 c-13 -16 -12 -17 4 -4 9 7 17 15 17 17 0 8 -8 3 -21 -13z"/>
<path d="M2076 2001 c-3 -5 2 -15 12 -22 15 -12 16 -12 5 2 -7 9 -10 19 -6 22
3 4 4 7 0 7 -3 0 -8 -4 -11 -9z"/>
<path d="M2239 1993 c-13 -16 -12 -17 4 -4 9 7 17 15 17 17 0 8 -8 3 -21 -13z"/>
<path d="M2346 2002 c-2 -4 4 -8 14 -8 10 0 16 4 14 8 -3 4 -9 8 -14 8 -5 0
-11 -4 -14 -8z"/>
<path d="M2580 1995 c-10 -12 -9 -16 4 -21 9 -3 23 -3 32 0 13 5 14 9 4 21 -7
8 -16 15 -20 15 -4 0 -13 -7 -20 -15z m35 -5 c3 -5 -3 -10 -15 -10 -12 0 -18
5 -15 10 3 6 10 10 15 10 5 0 12 -4 15 -10z"/>
<path d="M2315 1991 c-6 -11 13 -26 22 -17 4 3 1 6 -6 6 -7 0 -9 5 -6 10 3 6
4 10 1 10 -3 0 -7 -4 -11 -9z"/>
<path d="M1695 1980 c-3 -5 -1 -10 4 -10 6 0 11 5 11 10 0 6 -2 10 -4 10 -3 0
-8 -4 -11 -10z"/>
<path d="M2278 1983 c7 -3 16 -2 19 1 4 3 -2 6 -13 5 -11 0 -14 -3 -6 -6z"/>
<path d="M2453 1975 c-3 -9 -3 -18 -1 -21 3 -3 8 4 11 16 6 23 -1 27 -10 5z"/>
<path d="M2513 1971 c-9 -15 -9 -20 0 -24 7 -3 13 5 13 19 2 29 2 29 -13 5z"/>
<path d="M1973 1965 c0 -8 4 -12 9 -9 5 3 6 10 3 15 -9 13 -12 11 -12 -6z"/>
<path d="M2353 1967 c0 -7 9 -14 20 -14 11 -1 18 -1 16 0 -2 2 -11 8 -20 15
-12 9 -16 9 -16 -1z"/>
<path d="M1399 1953 c-13 -16 -12 -17 4 -4 9 7 17 15 17 17 0 8 -8 3 -21 -13z"/>
<path d="M2234 1945 c0 -13 3 -22 7 -19 8 4 6 30 -2 38 -3 3 -5 -5 -5 -19z"/>
<path d="M2280 1965 c0 -2 6 -8 13 -14 10 -8 14 -7 14 2 0 8 -6 14 -14 14 -7
0 -13 -1 -13 -2z"/>
<path d="M2427 1951 c-4 -17 -3 -21 5 -13 5 5 8 16 6 23 -3 8 -7 3 -11 -10z"/>
<path d="M2540 1966 c0 -2 7 -6 15 -10 8 -3 15 -1 15 4 0 6 -7 10 -15 10 -8 0
-15 -2 -15 -4z"/>
<path d="M2637 1961 c2 -2 -4 -9 -13 -15 -13 -10 -11 -12 10 -11 14 1 28 5 31
8 3 4 2 5 -2 2 -3 -3 -11 1 -17 8 -6 7 -10 10 -9 8z"/>
<path d="M2680 1960 c0 -5 5 -10 10 -10 6 0 10 5 10 10 0 6 -4 10 -10 10 -5 0
-10 -4 -10 -10z"/>
<path d="M2774 1953 c2 -9 8 -18 15 -19 6 -1 7 0 2 2 -6 3 -7 12 -4 20 3 8 1
14 -5 14 -6 0 -9 -8 -8 -17z"/>
<path d="M2194 1928 l-19 -23 23 19 c21 18 27 26 19 26 -2 0 -12 -10 -23 -22z"/>
<path d="M2814 1938 c-5 -8 -2 -9 10 -5 16 6 17 3 12 -20 -5 -23 -4 -25 5 -10
12 20 6 47 -10 47 -5 0 -13 -5 -17 -12z"/>
<path d="M1670 1936 c0 -2 8 -10 18 -17 15 -13 16 -12 3 4 -13 16 -21 21 -21
13z"/>
<path d="M2036 1927 c3 -10 9 -15 12 -12 3 3 0 11 -7 18 -10 9 -11 8 -5 -6z"/>
<path d="M2587 1927 c-3 -8 1 -14 8 -14 7 0 11 6 8 14 -3 7 -6 13 -8 13 -2 0
-5 -6 -8 -13z"/>
<path d="M2722 1920 c-18 -29 -15 -38 4 -12 9 13 14 25 12 27 -2 2 -9 -5 -16
-15z"/>
<path d="M2870 1930 c0 -5 7 -7 15 -4 8 4 15 8 15 10 0 2 -7 4 -15 4 -8 0 -15
-4 -15 -10z"/>
<path d="M2973 1930 c2 -8 12 -16 23 -17 13 -2 15 -1 4 4 -8 3 -19 11 -23 17
-6 7 -7 6 -4 -4z"/>
<path d="M2990 1936 c0 -2 9 -6 20 -9 11 -3 18 -1 14 4 -5 9 -34 13 -34 5z"/>
<path d="M2070 1919 c0 -5 5 -7 10 -4 6 3 10 8 10 11 0 2 -4 4 -10 4 -5 0 -10
-5 -10 -11z"/>
<path d="M2347 1919 c7 -7 15 -10 18 -7 3 3 -2 9 -12 12 -14 6 -15 5 -6 -5z"/>
<path d="M2470 1922 c0 -5 7 -9 15 -9 8 0 12 4 9 9 -3 4 -9 8 -15 8 -5 0 -9
-4 -9 -8z"/>
<path d="M2670 1926 c0 -2 7 -6 15 -10 8 -3 15 -1 15 4 0 6 -7 10 -15 10 -8 0
-15 -2 -15 -4z"/>
<path d="M2760 1920 c8 -5 20 -10 25 -10 6 0 3 5 -5 10 -8 5 -19 10 -25 10 -5
0 -3 -5 5 -10z"/>
<path d="M2950 1925 c0 -5 5 -17 10 -25 5 -8 10 -10 10 -5 0 6 -5 17 -10 25
-5 8 -10 11 -10 5z"/>
<path d="M2430 1916 c0 -2 8 -10 18 -17 15 -13 16 -12 3 4 -13 16 -21 21 -21
13z"/>
<path d="M3024 1905 c-10 -8 -14 -14 -9 -14 6 0 19 6 29 14 11 8 15 15 10 15
-6 0 -19 -7 -30 -15z"/>
<path d="M2548 1888 c2 -10 6 -18 7 -18 1 0 5 8 7 18 3 11 0 19 -7 19 -7 0
-10 -8 -7 -19z"/>
<path d="M2735 1900 c-3 -6 1 -13 10 -16 11 -5 13 -10 5 -19 -7 -8 -5 -12 5
-12 8 0 11 5 8 10 -4 7 1 8 13 4 18 -7 18 -7 0 8 -11 8 -24 15 -29 15 -4 0 -5
5 -2 10 3 6 4 10 1 10 -3 0 -8 -5 -11 -10z"/>
<path d="M2849 1885 c-9 -17 -8 -18 3 -5 16 19 53 27 42 9 -4 -8 -3 -10 5 -5
16 11 4 25 -20 23 -11 -1 -25 -11 -30 -22z"/>
<path d="M3505 1894 c-11 -8 -20 -20 -20 -25 0 -6 -9 -17 -19 -25 -11 -8 -16
-14 -11 -14 5 0 17 7 27 17 17 15 18 15 18 -6 0 -12 -4 -20 -9 -16 -17 10 -24
-18 -8 -30 9 -7 13 -16 9 -20 -4 -5 -1 -5 7 0 12 7 11 10 -2 20 -18 13 -24 30
-7 20 16 -10 24 26 11 47 -11 18 -10 19 11 13 16 -4 19 -3 9 3 -11 8 -11 10 0
14 8 3 12 8 9 11 -3 3 -14 -1 -25 -9z"/>
<path d="M2115 1889 c-4 -6 -5 -12 -2 -15 2 -3 7 2 10 11 7 17 1 20 -8 4z"/>
<path d="M2579 1898 c-5 -18 -6 -38 -1 -34 7 8 12 36 6 36 -2 0 -4 -1 -5 -2z"/>
<path d="M2931 1891 c-17 -11 -24 -41 -9 -41 5 0 8 6 5 13 -2 6 3 17 12 24 19
14 13 17 -8 4z"/>
<path d="M3358 1891 c17 -10 15 -20 -6 -46 l-17 -20 24 20 c21 18 24 18 18 3
-4 -10 -2 -18 3 -18 14 0 12 24 -2 38 -9 9 -9 12 0 12 6 0 16 -8 21 -17 6 -10
11 -13 11 -6 0 13 -38 43 -55 43 -5 0 -4 -4 3 -9z"/>
<path d="M2070 1881 c0 -6 4 -13 10 -16 6 -3 7 1 4 9 -7 18 -14 21 -14 7z"/>
<path d="M2655 1880 c3 -5 8 -10 11 -10 2 0 4 5 4 10 0 6 -5 10 -11 10 -5 0
-7 -4 -4 -10z"/>
<path d="M2998 1877 c12 -7 19 -17 15 -22 -4 -4 -2 -5 6 0 12 7 11 10 -4 22
-11 7 -24 13 -29 13 -6 -1 -1 -6 12 -13z"/>
<path d="M3040 1879 c0 -5 5 -7 10 -4 6 3 10 8 10 11 0 2 -4 4 -10 4 -5 0 -10
-5 -10 -11z"/>
<path d="M3110 1880 c8 -5 20 -10 25 -10 6 0 3 5 -5 10 -8 5 -19 10 -25 10 -5
0 -3 -5 5 -10z"/>
<path d="M3193 1870 c-1 -11 2 -18 8 -15 11 7 12 35 1 35 -4 0 -8 -9 -9 -20z"/>
<path d="M3230 1870 c6 -11 15 -18 20 -15 5 3 10 -3 13 -12 3 -14 4 -13 3 2
-1 11 -7 19 -14 18 -6 -2 -12 4 -12 12 0 8 -5 15 -10 15 -7 0 -7 -7 0 -20z"/>
<path d="M3600 1880 c0 -5 5 -10 11 -10 5 0 7 5 4 10 -3 6 -8 10 -11 10 -2 0
-4 -4 -4 -10z"/>
<path d="M2961 1873 c-1 -17 16 -25 25 -12 4 7 3 9 -4 5 -5 -3 -13 0 -15 6 -4
9 -6 10 -6 1z"/>
<path d="M3081 1872 c-1 -7 -6 -10 -11 -7 -6 3 -13 -1 -16 -9 -3 -9 -10 -14
-14 -11 -5 3 -11 1 -14 -4 -8 -13 24 -7 32 6 4 5 15 9 24 7 10 -1 21 3 25 8 3
6 1 8 -5 4 -5 -3 -13 0 -15 6 -4 10 -6 10 -6 0z"/>
<path d="M2155 1859 c-3 -4 2 -6 10 -5 21 3 28 13 10 13 -9 0 -18 -4 -20 -8z"/>
<path d="M2707 1859 c7 -7 15 -10 18 -7 3 3 -2 9 -12 12 -14 6 -15 5 -6 -5z"/>
<path d="M2797 1855 c-4 -8 -3 -16 1 -19 4 -3 9 4 9 15 2 23 -3 25 -10 4z"/>
<path d="M3570 1859 c0 -5 -6 -7 -12 -3 -7 4 -5 -2 5 -12 16 -17 18 -17 32 -1
8 9 10 12 3 7 -19 -15 -32 -12 -18 5 9 10 9 15 1 15 -6 0 -11 -5 -11 -11z"/>
<path d="M2655 1849 c-4 -6 -5 -12 -2 -15 2 -3 7 2 10 11 7 17 1 20 -8 4z"/>
<path d="M3533 1840 c1 -14 8 -24 15 -22 6 1 12 -7 12 -17 0 -24 16 -36 26
-20 4 7 3 9 -4 5 -6 -4 -12 3 -14 16 -2 13 -7 22 -13 20 -5 -2 -13 7 -17 20
-7 22 -7 22 -5 -2z"/>
<path d="M3619 1848 c-1 -7 -1 -16 0 -20 0 -5 -6 -8 -14 -8 -18 0 -20 -16 -3
-26 6 -4 8 -3 4 4 -3 5 -1 12 6 14 11 4 23 48 13 48 -3 0 -6 -6 -6 -12z"/>
<path d="M3646 1845 c-9 -26 -7 -32 5 -12 6 10 9 21 6 23 -2 3 -7 -2 -11 -11z"/>
<path d="M2675 1841 c-3 -5 -2 -12 3 -15 5 -3 9 1 9 9 0 17 -3 19 -12 6z"/>
<path d="M2880 1840 c-9 -6 -10 -10 -3 -10 6 0 15 5 18 10 8 12 4 12 -15 0z"/>
<path d="M3113 1834 c0 -17 25 -26 33 -12 5 7 2 8 -6 3 -9 -6 -12 -4 -8 7 4 8
1 15 -6 15 -7 0 -13 -6 -13 -13z"/>
<path d="M3170 1840 c0 -5 5 -10 11 -10 5 0 7 5 4 10 -3 6 -8 10 -11 10 -2 0
-4 -4 -4 -10z"/>
<path d="M3228 1832 c9 -10 19 -17 21 -16 6 5 -20 34 -30 34 -5 0 -1 -8 9 -18z"/>
<path d="M2453 1825 c0 -8 4 -12 9 -9 5 3 6 10 3 15 -9 13 -12 11 -12 -6z"/>
<path d="M2593 1825 c0 -8 4 -12 9 -9 5 3 6 10 3 15 -9 13 -12 11 -12 -6z"/>
<path d="M2911 1827 c-8 -10 -7 -14 2 -14 8 0 14 6 14 14 0 7 -1 13 -2 13 -2
0 -8 -6 -14 -13z"/>
<path d="M2946 1824 c-5 -14 -4 -15 9 -4 17 14 19 20 6 20 -5 0 -12 -7 -15
-16z"/>
<path d="M3737 1833 c-4 -3 -7 -11 -7 -17 0 -6 5 -5 12 2 6 6 9 14 7 17 -3 3
-9 2 -12 -2z"/>
<path d="M2286 1822 c-3 -5 1 -9 9 -9 8 0 12 4 9 9 -3 4 -7 8 -9 8 -2 0 -6 -4
-9 -8z"/>
<path d="M2375 1820 c-3 -5 -1 -10 4 -10 6 0 11 5 11 10 0 6 -2 10 -4 10 -3 0
-8 -4 -11 -10z"/>
<path d="M2991 1814 c6 -7 7 -19 3 -26 -6 -10 -5 -11 8 -1 8 7 17 11 20 8 2
-3 5 1 5 9 0 8 -6 12 -15 8 -9 -3 -13 -1 -9 5 3 5 0 10 -8 10 -11 0 -12 -4 -4
-13z"/>
<path d="M3078 1823 c7 -3 16 -2 19 1 4 3 -2 6 -13 5 -11 0 -14 -3 -6 -6z"/>
<path d="M3190 1820 c-11 -7 -11 -10 -2 -10 7 0 11 -4 8 -8 -3 -5 1 -9 9 -9
12 0 12 3 2 16 -10 12 -9 14 6 8 11 -4 16 -3 12 3 -8 12 -16 12 -35 0z"/>
<path d="M3299 1828 c-8 -27 -5 -36 9 -30 10 4 12 7 4 10 -7 2 -10 8 -6 13 3
5 3 9 0 9 -3 0 -6 -1 -7 -2z"/>
<path d="M3350 1811 c0 -6 5 -13 12 -17 6 -4 8 -3 4 4 -3 5 0 13 6 15 8 3 6 6
-4 6 -10 1 -18 -3 -18 -8z"/>
<path d="M3426 1804 c-11 -8 -16 -14 -10 -14 13 0 39 18 34 24 -3 2 -14 -2
-24 -10z"/>
<path d="M3710 1805 c0 -8 4 -15 10 -15 5 0 7 7 4 15 -4 8 -8 15 -10 15 -2 0
-4 -7 -4 -15z"/>
<path d="M3080 1805 c0 -2 6 -8 13 -14 10 -8 14 -7 14 2 0 8 -6 14 -14 14 -7
0 -13 -1 -13 -2z"/>
<path d="M3257 1796 c-4 -10 -1 -13 8 -9 8 3 12 9 9 14 -7 12 -11 11 -17 -5z"/>
<path d="M3515 1800 c3 -5 8 -10 11 -10 2 0 4 5 4 10 0 6 -5 10 -11 10 -5 0
-7 -4 -4 -10z"/>
<path d="M3755 1800 c3 -5 11 -10 16 -10 6 0 7 5 4 10 -3 6 -11 10 -16 10 -6
0 -7 -4 -4 -10z"/>
<path d="M2613 1785 c0 -8 4 -12 9 -9 5 3 6 10 3 15 -9 13 -12 11 -12 -6z"/>
<path d="M3153 1767 c-1 -11 -1 -18 0 -16 2 2 8 11 15 20 9 12 9 16 -1 16 -7
0 -14 -9 -14 -20z"/>
<path d="M3313 1783 c4 -3 -1 -16 -10 -27 -18 -21 -18 -21 5 -2 24 21 29 36
10 36 -6 0 -8 -3 -5 -7z"/>
<path d="M3536 1782 c-7 -11 6 -26 24 -30 12 -2 11 1 -2 11 -10 8 -15 17 -11
20 3 4 4 7 0 7 -3 0 -8 -4 -11 -8z"/>
<path d="M3696 1777 c3 -10 9 -15 12 -12 3 3 0 11 -7 18 -10 9 -11 8 -5 -6z"/>
<path d="M3790 1780 c0 -5 5 -10 10 -10 6 0 10 5 10 10 0 6 -4 10 -10 10 -5 0
-10 -4 -10 -10z"/>
<path d="M3830 1770 c-13 -8 -12 -10 3 -10 9 0 17 5 17 10 0 12 -1 12 -20 0z"/>
<path d="M2856 1753 c-6 -14 -5 -15 5 -6 7 7 10 15 7 18 -3 3 -9 -2 -12 -12z"/>
<path d="M3065 1760 c-3 -6 1 -7 9 -4 18 7 21 14 7 14 -6 0 -13 -4 -16 -10z"/>
<path d="M3233 1751 c0 -11 5 -18 9 -15 4 3 5 11 1 19 -7 21 -12 19 -10 -4z"/>
<path d="M3510 1761 c0 -6 4 -13 10 -16 6 -3 7 1 4 9 -7 18 -14 21 -14 7z"/>
<path d="M3610 1766 c0 -2 7 -7 16 -10 8 -3 12 -2 9 4 -6 10 -25 14 -25 6z"/>
<path d="M3650 1759 c0 -5 5 -7 10 -4 6 3 10 8 10 11 0 2 -4 4 -10 4 -5 0 -10
-5 -10 -11z"/>
<path d="M3748 1763 c6 -2 18 -2 25 0 6 3 1 5 -13 5 -14 0 -19 -2 -12 -5z"/>
<path d="M3905 1757 c-14 -11 -15 -16 -5 -22 9 -5 11 -4 6 3 -9 15 -1 15 27 1
20 -9 20 -9 5 4 -10 8 -15 17 -11 20 11 12 -3 7 -22 -6z"/>
<path d="M3437 1749 c7 -7 15 -10 18 -7 3 3 -2 9 -12 12 -14 6 -15 5 -6 -5z"/>
<path d="M3715 1750 c-3 -5 -1 -10 4 -10 6 0 11 5 11 10 0 6 -2 10 -4 10 -3 0
-8 -4 -11 -10z"/>
<path d="M3790 1750 c0 -5 5 -10 11 -10 5 0 7 5 4 10 -3 6 -8 10 -11 10 -2 0
-4 -4 -4 -10z"/>
<path d="M2890 1739 c0 -5 5 -7 10 -4 6 3 10 8 10 11 0 2 -4 4 -10 4 -5 0 -10
-5 -10 -11z"/>
<path d="M3360 1740 c-9 -6 -10 -10 -3 -10 6 0 15 5 18 10 8 12 4 12 -15 0z"/>
<path d="M3590 1735 c5 -7 6 -15 2 -20 -4 -4 3 -2 16 4 26 14 30 23 5 14 -10
-4 -14 -2 -10 4 3 5 0 10 -8 10 -10 0 -12 -4 -5 -12z"/>
<path d="M3856 1737 c3 -10 9 -15 12 -12 3 3 0 11 -7 18 -10 9 -11 8 -5 -6z"/>
<path d="M3494 1729 c-3 -6 -2 -15 3 -20 5 -5 9 -1 9 11 0 23 -2 24 -12 9z"/>
<path d="M3654 1728 c3 -14 56 -20 56 -6 0 4 -11 6 -24 4 -14 -2 -27 0 -30 5
-2 5 -3 4 -2 -3z"/>
<path d="M3810 1720 c0 -4 7 -7 15 -6 23 3 26 12 5 13 -11 1 -20 -2 -20 -7z"/>
<path d="M3880 1721 c0 -5 7 -12 16 -15 14 -5 15 -4 4 9 -14 17 -20 19 -20 6z"/>
<path d="M3926 1717 c3 -10 9 -15 12 -12 3 3 0 11 -7 18 -10 9 -11 8 -5 -6z"/>
<path d="M3955 1720 c-3 -6 1 -7 9 -4 18 7 21 14 7 14 -6 0 -13 -4 -16 -10z"/>
<path d="M3990 1710 c0 -5 5 -10 11 -10 5 0 7 5 4 10 -3 6 -8 10 -11 10 -2 0
-4 -4 -4 -10z"/>
<path d="M4035 1710 c-3 -6 1 -7 9 -4 18 7 21 14 7 14 -6 0 -13 -4 -16 -10z"/>
<path d="M2990 1700 c0 -5 5 -10 11 -10 5 0 7 5 4 10 -3 6 -8 10 -11 10 -2 0
-4 -4 -4 -10z"/>
<path d="M3086 1702 c-3 -5 1 -9 9 -9 8 0 12 4 9 9 -3 4 -7 8 -9 8 -2 0 -6 -4
-9 -8z"/>
<path d="M3600 1700 c-9 -6 -10 -10 -3 -10 6 0 15 5 18 10 8 12 4 12 -15 0z"/>
<path d="M3748 1703 c6 -2 18 -2 25 0 6 3 1 5 -13 5 -14 0 -19 -2 -12 -5z"/>
<path d="M3794 1696 c1 -8 5 -18 8 -22 4 -3 5 1 4 10 -1 8 -5 18 -8 22 -4 3
-5 -1 -4 -10z"/>
<path d="M2875 1691 c-3 -5 -2 -12 3 -15 5 -3 9 1 9 9 0 17 -3 19 -12 6z"/>
<path d="M3360 1680 c-9 -6 -10 -10 -3 -10 6 0 15 5 18 10 8 12 4 12 -15 0z"/>
<path d="M3500 1686 c0 -2 8 -10 18 -17 15 -13 16 -12 3 4 -13 16 -21 21 -21
13z"/>
<path d="M3634 1675 c3 -23 12 -26 13 -5 1 11 -2 20 -7 20 -4 0 -7 -7 -6 -15z"/>
<path d="M3739 1673 c-13 -16 -12 -17 4 -4 14 11 20 11 35 0 15 -13 16 -12 3
4 -7 9 -17 17 -21 17 -4 0 -14 -8 -21 -17z"/>
<path d="M3850 1686 c0 -2 7 -7 16 -10 8 -3 12 -2 9 4 -6 10 -25 14 -25 6z"/>
<path d="M3910 1680 c0 -5 5 -10 10 -10 6 0 10 5 10 10 0 6 -4 10 -10 10 -5 0
-10 -4 -10 -10z"/>
<path d="M4010 1679 c0 -7 3 -10 6 -6 3 3 18 1 33 -4 15 -6 22 -6 16 -1 -18
17 -55 24 -55 11z"/>
<path d="M4100 1679 c0 -5 5 -7 10 -4 6 3 10 8 10 11 0 2 -4 4 -10 4 -5 0 -10
-5 -10 -11z"/>
<path d="M4150 1685 c0 -7 30 -13 34 -7 3 4 -4 9 -15 9 -10 1 -19 0 -19 -2z"/>
<path d="M3270 1676 c0 -2 8 -10 18 -17 15 -13 16 -12 3 4 -13 16 -21 21 -21
13z"/>
<path d="M3818 1658 c-9 -5 -6 -7 9 -5 12 2 25 6 28 8 8 9 -23 6 -37 -3z"/>
<path d="M3990 1663 c7 -3 5 -13 -7 -26 -12 -15 -13 -18 -2 -9 9 6 18 9 22 6
3 -3 4 2 3 12 -2 10 -8 19 -15 20 -7 2 -7 1 -1 -3z"/>
<path d="M4065 1642 c-12 -17 -13 -22 -4 -15 9 7 18 11 20 8 3 -2 5 5 6 15 2
25 2 25 -22 -8z"/>
<path d="M4193 1658 c2 -7 1 -20 -4 -29 -5 -10 -3 -16 6 -16 7 0 11 7 7 15 -4
11 -2 13 9 7 11 -7 12 -6 2 7 -7 8 -10 18 -6 21 3 4 1 7 -6 7 -7 0 -11 -6 -8
-12z"/>
<path d="M3326 1642 c-3 -5 1 -9 9 -9 8 0 12 4 9 9 -3 4 -7 8 -9 8 -2 0 -6 -4
-9 -8z"/>
<path d="M3776 1633 c-6 -14 -5 -15 5 -6 7 7 10 15 7 18 -3 3 -9 -2 -12 -12z"/>
<path d="M3867 1639 c7 -7 15 -10 18 -7 3 3 -2 9 -12 12 -14 6 -15 5 -6 -5z"/>
<path d="M4125 1640 c-3 -6 1 -7 9 -4 18 7 21 14 7 14 -6 0 -13 -4 -16 -10z"/>
<path d="M3573 1625 c0 -8 4 -12 9 -9 5 3 6 10 3 15 -9 13 -12 11 -12 -6z"/>
<path d="M4239 1638 c-5 -18 -6 -38 -1 -34 7 8 12 36 6 36 -2 0 -4 -1 -5 -2z"/>
<path d="M4307 1626 c-4 -10 1 -12 14 -9 23 6 24 9 5 16 -8 3 -17 0 -19 -7z"/>
<path d="M3910 1621 c0 -6 4 -13 10 -16 6 -3 7 1 4 9 -7 18 -14 21 -14 7z"/>
<path d="M4017 1613 c-10 -9 -9 -23 1 -23 5 0 9 7 9 15 0 17 -1 18 -10 8z"/>
<path d="M4075 1602 c3 -3 0 -10 -5 -17 -7 -8 -5 -12 5 -12 8 0 13 3 10 5 -3
3 0 10 5 17 7 8 5 12 -5 12 -8 0 -13 -3 -10 -5z"/>
<path d="M4470 1599 c0 -5 5 -7 10 -4 6 3 10 8 10 11 0 2 -4 4 -10 4 -5 0 -10
-5 -10 -11z"/>
<path d="M3596 1587 c3 -10 9 -15 12 -12 3 3 0 11 -7 18 -10 9 -11 8 -5 -6z"/>
<path d="M4495 1590 c-3 -6 1 -7 9 -4 18 7 21 14 7 14 -6 0 -13 -4 -16 -10z"/>
<path d="M3890 1579 c0 -5 5 -7 10 -4 6 3 10 8 10 11 0 2 -4 4 -10 4 -5 0 -10
-5 -10 -11z"/>
<path d="M4189 1577 c6 -8 7 -18 3 -22 -4 -5 -1 -5 6 -1 10 6 10 11 1 22 -6 8
-14 14 -16 14 -3 0 0 -6 6 -13z"/>
<path d="M4310 1576 c7 -7 13 -7 20 0 6 6 3 10 -10 10 -13 0 -16 -4 -10 -10z"/>
<path d="M4405 1579 c-4 -6 -5 -12 -2 -15 2 -3 7 2 10 11 7 17 1 20 -8 4z"/>
<path d="M4256 1567 c3 -10 9 -15 12 -12 3 3 0 11 -7 18 -10 9 -11 8 -5 -6z"/>
<path d="M4455 1570 c-4 -6 -10 -8 -14 -6 -4 3 -8 -1 -8 -9 0 -10 4 -12 12 -5
7 5 14 8 17 5 2 -3 5 2 5 10 0 18 -3 19 -12 5z"/>
<path d="M3996 1553 c-6 -14 -5 -15 5 -6 7 7 10 15 7 18 -3 3 -9 -2 -12 -12z"/>
<path d="M4030 1560 c0 -5 5 -10 11 -10 5 0 7 5 4 10 -3 6 -8 10 -11 10 -2 0
-4 -4 -4 -10z"/>
<path d="M4116 1553 c-6 -14 -5 -15 5 -6 7 7 10 15 7 18 -3 3 -9 -2 -12 -12z"/>
<path d="M4150 1560 c0 -5 5 -10 11 -10 5 0 7 5 4 10 -3 6 -8 10 -11 10 -2 0
-4 -4 -4 -10z"/>
<path d="M4356 1558 c3 -5 10 -6 15 -3 13 9 11 12 -6 12 -8 0 -12 -4 -9 -9z"/>
<path d="M4596 1558 c3 -5 10 -6 15 -3 13 9 11 12 -6 12 -8 0 -12 -4 -9 -9z"/>
<path d="M4390 1542 c0 -5 7 -9 15 -9 8 0 12 4 9 9 -3 4 -9 8 -15 8 -5 0 -9
-4 -9 -8z"/>
<path d="M4680 1535 c-7 -8 -17 -12 -23 -8 -6 4 -7 1 -3 -6 6 -9 13 -8 27 5
10 9 19 19 19 21 0 7 -8 2 -20 -12z"/>
<path d="M4752 1535 c17 -18 73 -31 63 -14 -3 4 -13 6 -23 4 -9 -1 -26 5 -37
13 -19 16 -19 16 -3 -3z"/>
<path d="M4830 1543 c5 -2 8 -9 5 -13 -3 -5 -1 -11 4 -14 5 -4 8 2 7 11 -2 9
-8 18 -15 19 -6 1 -7 0 -1 -3z"/>
<path d="M4115 1520 c-3 -5 -1 -10 4 -10 6 0 11 5 11 10 0 6 -2 10 -4 10 -3 0
-8 -4 -11 -10z"/>
<path d="M4890 1521 c0 -6 4 -12 8 -15 5 -3 9 1 9 9 0 8 -4 15 -9 15 -4 0 -8
-4 -8 -9z"/>
<path d="M3999 1518 c-5 -18 -6 -38 -1 -34 7 8 12 36 6 36 -2 0 -4 -1 -5 -2z"/>
<path d="M4495 1511 c-3 -5 -2 -12 3 -15 5 -3 9 1 9 9 0 17 -3 19 -12 6z"/>
<path d="M4255 1500 c3 -5 8 -10 11 -10 2 0 4 5 4 10 0 6 -5 10 -11 10 -5 0
-7 -4 -4 -10z"/>
<path d="M5096 1487 c3 -10 9 -15 12 -12 3 3 0 11 -7 18 -10 9 -11 8 -5 -6z"/>
<path d="M4615 1461 c-3 -5 -2 -12 3 -15 5 -3 9 1 9 9 0 17 -3 19 -12 6z"/>
<path d="M4810 1459 c0 -5 5 -7 10 -4 6 3 10 8 10 11 0 2 -4 4 -10 4 -5 0 -10
-5 -10 -11z"/>
<path d="M5056 1458 c3 -4 11 -5 19 -1 21 7 19 12 -4 10 -11 0 -18 -5 -15 -9z"/>
<path d="M5195 1451 c-3 -5 -2 -12 3 -15 5 -3 9 1 9 9 0 17 -3 19 -12 6z"/>
<path d="M5150 1440 c0 -5 5 -10 11 -10 5 0 7 5 4 10 -3 6 -8 10 -11 10 -2 0
-4 -4 -4 -10z"/>
<path d="M4355 1409 c-4 -6 -5 -12 -2 -15 2 -3 7 2 10 11 7 17 1 20 -8 4z"/>
<path d="M5630 1400 c0 -5 5 -10 11 -10 5 0 7 5 4 10 -3 6 -8 10 -11 10 -2 0
-4 -4 -4 -10z"/>
</g>
</svg>
